<?xml version="1.0" encoding="UTF-8" standalone="no"?>
<!-- Created with Inkscape (http://www.inkscape.org/) -->

<svg
   xmlns:dc="http://purl.org/dc/elements/1.1/"
   xmlns:cc="http://creativecommons.org/ns#"
   xmlns:rdf="http://www.w3.org/1999/02/22-rdf-syntax-ns#"
   xmlns:svg="http://www.w3.org/2000/svg"
   xmlns="http://www.w3.org/2000/svg"
   xmlns:sodipodi="http://sodipodi.sourceforge.net/DTD/sodipodi-0.dtd"
   xmlns:inkscape="http://www.inkscape.org/namespaces/inkscape"
   version="1.1"
   id="svg64"
   width="530"
   height="530"
   viewBox="0 0 530 530"
   sodipodi:docname="logo.svg"
   inkscape:version="0.92.4 5da689c313, 2019-01-14"
   inkscape:export-filename="/home/mario/gpm/github.com/MarioJim/mTouch/public/img/high-level-prototype/pwa_icons/icon-512x512.png"
   inkscape:export-xdpi="92.739624"
   inkscape:export-ydpi="92.739624">
  <metadata
     id="metadata70">
    <rdf:RDF>
      <cc:Work
         rdf:about="">
        <dc:format>image/svg+xml</dc:format>
        <dc:type
           rdf:resource="http://purl.org/dc/dcmitype/StillImage" />
        <dc:title />
      </cc:Work>
    </rdf:RDF>
  </metadata>
  <defs
     id="defs68">
    <filter
       style="color-interpolation-filters:sRGB"
       inkscape:label="Invert"
       id="filter4745">
      <feColorMatrix
         type="hueRotate"
         values="180"
         result="color1"
         id="feColorMatrix4741" />
      <feColorMatrix
         values="-1 0 0 0 1 0 -1 0 0 1 0 0 -1 0 1 -0.21 -0.72 -0.07 2 0 "
         result="color2"
         id="feColorMatrix4743" />
    </filter>
  </defs>
  <sodipodi:namedview
     pagecolor="#ffffff"
     bordercolor="#666666"
     borderopacity="1"
     objecttolerance="10"
     gridtolerance="10"
     guidetolerance="10"
     inkscape:pageopacity="0"
     inkscape:pageshadow="2"
     inkscape:window-width="1920"
     inkscape:window-height="1016"
     id="namedview66"
     showgrid="false"
     inkscape:zoom="1"
     inkscape:cx="284"
     inkscape:cy="270.50549"
     inkscape:window-x="0"
     inkscape:window-y="32"
     inkscape:window-maximized="1"
     inkscape:current-layer="layer4" />
  <g
     inkscape:groupmode="layer"
     id="layer3"
     inkscape:label="Layer 3"
     style="display:inline"
     transform="translate(-80,-80)">
    <circle
       id="path92-3"
       cx="345"
       cy="345"
       style="display:inline;fill:#999999;stroke-width:1.12573504;image-rendering:optimizeQuality"
       r="265" />
  </g>
  <g
     inkscape:groupmode="layer"
     id="layer2"
     inkscape:label="Layer 2"
     style="display:inline"
     transform="translate(-80,-80)">
    <circle
       id="path92"
       cx="344.90729"
       cy="345.09271"
       style="fill:#f9f9f9;stroke-width:1.01953375;image-rendering:optimizeQuality"
       r="240" />
  </g>
  <g
     inkscape:groupmode="layer"
     id="layer4"
     inkscape:label="Layer 4"
     style="display:inline"
     transform="translate(-80,-80)">
    <path
       style="fill:#000000;fill-opacity:1;stroke:#000000;stroke-width:1.1069541px;stroke-linecap:butt;stroke-linejoin:miter;stroke-opacity:1"
       d="m 307.16868,454.45348 h 75.50898 c 9.07878,0 8.97137,14.60561 0,14.60561 0.2136,0 -75.82938,0.39123 -75.82938,0.26082 -8.54778,0 -8.34108,-14.86643 0.3204,-14.86643 z"
       id="path148"
       inkscape:connector-curvature="0"
       sodipodi:nodetypes="ccccc" />
  </g>
  <g
     inkscape:groupmode="layer"
     id="layer5"
     inkscape:label="Layer 5"
     transform="translate(-80,-80)"
     style="display:inline">
    <path
       style="fill:#000000;stroke-width:0.1295197"
       d="m 226.59452,294.92835 c -0.6807,-0.13817 -1.0443,-0.35946 -1.3346,-0.81235 -0.2525,-0.394 -0.258,-0.81917 -0.2585,-20.14607 -5e-4,-21.88464 -0.073,-20.19145 0.8898,-20.75747 0.711,-0.418 2.1565,-0.418 2.8676,0 0.947,0.55669 0.8902,-0.24343 0.8902,12.5465 v 11.53261 l 12.5165,-11.89957 c 7.0599,-6.71183 12.6796,-11.95712 12.8904,-12.03161 0.5191,-0.18335 1.4777,-0.16498 1.9877,0.0381 0.235,0.0935 0.6514,0.4064 0.9253,0.69511 0.4733,0.49886 0.498,0.56795 0.498,1.38988 0,0.75685 -0.048,0.92645 -0.385,1.35755 -0.2118,0.27095 -3.9468,3.87467 -8.3001,8.00822 -4.3533,4.13358 -7.9151,7.56182 -7.9151,7.61834 0,0.0763 5.5595,6.58701 7.6792,8.993 0.1224,0.13895 0.6098,0.70737 1.0831,1.26318 0.4732,0.55581 1.041,1.21155 1.2616,1.4572 0.2206,0.24564 0.6102,0.69836 0.8659,1.00604 0.2556,0.30764 0.6474,0.76036 0.8707,1.006 0.2232,0.24565 0.5519,0.62382 0.7304,0.84036 0.1785,0.21652 1.0767,1.26812 1.996,2.33689 0.9194,1.06876 1.7411,2.06734 1.826,2.21911 0.085,0.15175 0.1545,0.66618 0.1545,1.14316 0,0.72794 -0.058,0.95167 -0.3582,1.39284 -0.1971,0.28909 -0.5407,0.59843 -0.7637,0.68743 -0.5249,0.20962 -1.9656,0.1942 -2.3975,-0.0257 -0.1849,-0.0942 -3.9001,-4.26805 -8.2558,-9.27527 -4.3557,-5.00722 -8.0306,-9.21678 -8.1665,-9.35455 -0.2438,-0.24728 -0.3019,-0.19831 -4.4952,3.78882 l -4.2482,4.03934 v 4.81376 c 0,4.78409 0,4.81631 -0.2988,5.23136 -0.1644,0.22966 -0.4482,0.52016 -0.6308,0.64552 -0.383,0.26295 -1.4487,0.38944 -2.1249,0.25221 z m 31.4292,-2.44644 c -0.037,-0.0869 -0.067,-0.0158 -0.067,0.15789 0,0.17371 0.03,0.24476 0.067,0.15791 0.037,-0.0869 0.037,-0.22894 0,-0.3158 z m 14.8629,2.3322 c -0.2132,-0.1241 -0.512,-0.38403 -0.664,-0.57762 l -0.2763,-0.35198 -0.034,-19.44507 c -0.038,-21.42588 -0.09,-20.0658 0.7901,-20.57627 0.5613,-0.32551 2.2965,-0.36147 2.9089,-0.0603 0.8035,0.39524 0.9161,0.77211 0.9166,3.06957 l 6e-4,2.06516 1.0114,-0.89845 c 2.5422,-2.2583 5.7407,-3.75132 9.1304,-4.26198 1.6543,-0.24922 5.7451,-0.17018 7.1654,0.13848 5.8953,1.28104 10.921,5.59569 12.8296,11.01416 0.8917,2.53162 0.8723,2.17328 0.8723,16.17407 0,12.58353 -10e-4,12.65611 -0.2738,13.00304 -0.5556,0.70801 -0.8994,0.85327 -2.015,0.85151 -1.2079,-0.002 -1.7728,-0.22437 -2.1246,-0.83653 -0.2185,-0.38024 -0.2396,-1.27545 -0.3065,-12.97713 -0.071,-12.48826 -0.074,-12.57551 -0.3678,-13.62899 -1.2292,-4.40477 -5.0395,-8.04925 -9.5869,-9.16986 -4.5037,-1.10986 -9.2694,0.28323 -12.6377,3.69422 -2.1078,2.13452 -3.2174,4.40792 -3.5598,7.29382 -0.082,0.68743 -0.1355,5.73112 -0.1365,12.7582 -10e-4,11.29526 -0.01,11.63267 -0.2603,12.02501 -0.4003,0.62447 -0.7852,0.79497 -1.9455,0.86199 -0.8514,0.0491 -1.1213,0.0181 -1.4361,-0.16508 z m 30.6001,-1.39533 c 0,-0.16448 -0.1579,-0.27386 -0.2863,-0.19836 -0.1373,0.0808 -0.019,0.30363 0.1613,0.30363 0.069,0 0.125,-0.0474 0.125,-0.10527 z m 3.7184,-0.0917 c 0,-0.10829 -0.061,-0.16121 -0.1349,-0.11759 -0.074,0.0436 -0.1005,0.13227 -0.059,0.19694 0.1138,0.17522 0.1935,0.14254 0.1935,-0.0794 z m -30.8763,-11.84546 c 0,-7.61421 -0.045,-11.59004 -0.1328,-11.6108 -0.088,-0.0209 -0.1444,3.93553 -0.1667,11.63208 -0.027,9.31203 -3e-4,11.653 0.1328,11.61081 0.1321,-0.0419 0.1667,-2.4553 0.1667,-11.63209 z m -4.0837,-16.59048 c -0.019,-5.19873 -0.035,-0.98258 -0.035,9.36926 0,10.35183 0.016,14.60535 0.035,9.45225 0.019,-5.1531 0.019,-13.62278 0,-18.82151 z m 31.1068,4.60073 c 0,-0.22542 -0.068,-0.34738 -0.1972,-0.34738 -0.2084,0 -0.2693,0.43733 -0.1143,0.82133 0.1165,0.28889 0.3087,-0.003 0.3115,-0.47395 z m 3.9608,-0.3158 c -0.023,-0.26053 -0.1009,-0.47369 -0.174,-0.47369 -0.073,0 -0.1513,0.21316 -0.174,0.47369 -0.032,0.36866 0.01,0.47369 0.174,0.47369 0.1675,0 0.2061,-0.10503 0.174,-0.47369 z m -30.9596,-0.56055 c -0.042,-0.10076 -0.074,-0.0709 -0.08,0.0763 0,0.13316 0.025,0.20775 0.07,0.16578 0.044,-0.042 0.049,-0.15092 0.011,-0.24212 z m 26.8149,-0.43105 c -0.064,-0.15936 -0.1283,-0.18121 -0.2345,-0.0802 -0.08,0.0764 -0.1063,0.23754 -0.058,0.35804 0.064,0.15934 0.1282,0.1812 0.2344,0.0802 0.08,-0.0764 0.1064,-0.23754 0.058,-0.35803 z m 4.0119,-0.2716 c -0.054,-0.26625 -0.2896,-0.24946 -0.3497,0.025 -0.025,0.11444 0.048,0.19615 0.1757,0.19615 0.1368,0 0.202,-0.0827 0.174,-0.22107 z m -4.2868,-0.61003 -0.203,-0.36894 0.024,0.37897 c 0.03,0.48112 0.1068,0.62106 0.2607,0.47468 0.074,-0.0702 0.042,-0.26118 -0.081,-0.48471 z m 4.1488,-0.0768 c -0.082,-0.23422 -0.368,-0.27307 -0.368,-0.0499 0,0.11 0.095,0.20001 0.2103,0.20001 0.1157,0 0.1866,-0.0675 0.1577,-0.15001 z m -0.2463,-0.96311 c -0.1748,-0.47689 -0.4261,-0.4116 -0.303,0.0788 0.1184,0.47169 0.1922,0.56927 0.3309,0.4374 0.071,-0.0676 0.06,-0.27758 -0.028,-0.51614 z m -0.449,-1.27847 c -0.1159,-0.21309 -0.2342,-0.38743 -0.263,-0.38743 -0.064,0 0.1891,0.8994 0.3026,1.07371 0.1893,0.29065 0.1534,-0.33122 -0.04,-0.68628 z m -0.5779,-1.29903 c -0.095,-0.0907 -0.1572,-0.0981 -0.1572,-0.019 0,0.1686 0.1571,0.31799 0.2457,0.23368 0.038,-0.0359 0,-0.13252 -0.088,-0.21473 z m -29.3735,-6.03307 c 0,-2.00074 -0.055,-2.46329 -0.2796,-2.33159 -0.1338,0.0787 -0.1661,4.26273 -0.034,4.38849 0.2426,0.23069 0.3135,-0.23492 0.3135,-2.0569 z m 63.6784,37.25513 c -4.8112,-0.27886 -9.2421,-2.30122 -12.7495,-5.81909 -3.0028,-3.01174 -4.874,-6.48843 -5.737,-10.65946 -0.3291,-1.59082 -0.3347,-6.56187 -0.01,-8.21073 0.8495,-4.30326 2.8432,-7.94826 6.0124,-10.99201 2.4201,-2.32434 4.9696,-3.84982 7.9822,-4.7762 2.2288,-0.68535 3.9953,-0.88593 7.0908,-0.80511 3.5311,0.0922 5.3404,0.48181 8.0345,1.73008 5.8296,2.7011 10.3323,8.31167 11.5422,14.38233 0.5571,2.79508 0.5369,6.47771 -0.05,9.21923 -1.7136,7.9981 -8.6877,14.58367 -16.6695,15.74082 -1.5481,0.22442 -3.6117,0.29647 -5.4464,0.19014 z m 4.648,-4.60603 c 4.2939,-0.84486 8.0976,-3.4627 10.6162,-7.30634 2.6463,-4.0386 3.3025,-9.36754 1.7171,-13.94563 -0.8386,-2.42154 -2.0976,-4.35874 -4.1397,-6.36918 -2.8129,-2.76942 -5.8941,-4.24544 -9.7116,-4.65233 -3.4153,-0.36401 -7.3726,0.75385 -10.3013,2.90987 -1.0502,0.77309 -2.8962,2.61937 -3.7218,3.72233 -3.196,4.26978 -4.0437,9.96323 -2.2444,15.07459 1.4331,4.07097 4.9566,7.85754 8.9036,9.56845 2.8375,1.22995 5.935,1.57809 8.8819,0.99824 z m 11.2217,-1.13542 c 0.1716,-0.17369 0.2821,-0.3158 0.2455,-0.3158 -0.037,0 -0.2067,0.14211 -0.3782,0.3158 -0.1716,0.17369 -0.2821,0.31582 -0.2456,0.31582 0.037,0 0.2068,-0.14213 0.3783,-0.31582 z m -27.7555,0.14179 c 0,-0.0262 -0.1046,-0.12571 -0.2324,-0.22107 -0.2106,-0.15712 -0.2153,-0.15265 -0.05,0.0478 0.1735,0.21041 0.2825,0.27733 0.2825,0.17337 z m 31.474,-4.75242 c 0,-0.0695 -0.026,-0.12633 -0.059,-0.12633 -0.032,0 -0.095,0.0568 -0.1407,0.12633 -0.045,0.0695 -0.019,0.12633 0.058,0.12633 0.077,0 0.1407,-0.0569 0.1407,-0.12633 z m 0.9296,-1.78338 c 0,-0.13895 -0.06,-0.21749 -0.1328,-0.17456 -0.073,0.0429 -0.1328,0.19176 -0.1328,0.33071 0,0.13894 0.06,0.2175 0.1328,0.17457 0.073,-0.0429 0.1328,-0.19175 0.1328,-0.33072 z m -32.6692,-0.11141 c 0,-0.0695 -0.063,-0.12632 -0.1406,-0.12632 -0.077,0 -0.1038,0.057 -0.059,0.12632 0.045,0.0695 0.1083,0.12632 0.1406,0.12632 0.032,0 0.059,-0.0568 0.059,-0.12632 z m 33.0676,-0.63905 c 0,-0.0654 -0.06,-0.11886 -0.1328,-0.11886 -0.073,0 -0.1328,0.0886 -0.1328,0.19693 0,0.10831 0.06,0.1618 0.1328,0.11886 0.073,-0.0429 0.1328,-0.13155 0.1328,-0.19693 z m -4.3825,-0.0556 c 0,-0.10422 -0.06,-0.18948 -0.1327,-0.18948 -0.073,0 -0.1328,0.0853 -0.1328,0.18948 0,0.10421 0.06,0.18946 0.1328,0.18946 0.073,0 0.1327,-0.0853 0.1327,-0.18946 z m -29.467,-0.8574 c -0.1083,-0.10322 -0.1477,-0.089 -0.1477,0.0532 0,0.2511 0.1786,0.42096 0.2446,0.23265 0.028,-0.08 -0.016,-0.20852 -0.097,-0.28581 z m 30.1311,-0.54758 c 0,-0.23776 -0.2187,-0.22 -0.3178,0.0258 -0.1406,0.34851 -0.093,0.47217 0.1186,0.30546 0.1095,-0.0865 0.1992,-0.23556 0.1992,-0.33126 z m 4.5656,-1.15533 c 0.026,-0.18978 0.08,-0.43029 0.1199,-0.53451 0.04,-0.10421 0.1058,-0.37422 0.1469,-0.60001 0.058,-0.32092 0.028,-0.41053 -0.1368,-0.41053 -0.1459,0 -0.1899,0.0782 -0.1419,0.2525 0.038,0.13888 0.012,0.28603 -0.057,0.327 -0.07,0.0409 -0.1147,0.1689 -0.1,0.28432 0.015,0.11544 -0.01,0.29515 -0.053,0.39936 -0.198,0.47138 -0.3419,1.18842 -0.2629,1.30996 0.1,0.15302 0.4139,-0.51392 0.4847,-1.02809 z m -39.5345,0.19972 c -0.042,-0.10077 -0.074,-0.0709 -0.08,0.0763 0,0.13316 0.026,0.20777 0.07,0.1658 0.044,-0.042 0.049,-0.15092 0.011,-0.24211 z m 4.0901,-0.61508 c -0.071,-0.21205 -0.1196,-0.23803 -0.2037,-0.1085 -0.064,0.0978 -0.049,0.24071 0.033,0.33554 0.1969,0.22572 0.283,0.11091 0.1703,-0.22704 z m 31.2351,0.10981 c -0.042,-0.10077 -0.074,-0.0709 -0.08,0.0763 0,0.13316 0.026,0.20777 0.07,0.16579 0.044,-0.042 0.049,-0.15092 0.011,-0.2421 z m -35.4413,-0.70265 c -0.054,-0.26625 -0.2896,-0.24947 -0.3496,0.025 -0.025,0.11444 0.048,0.19614 0.1757,0.19614 0.1368,0 0.2019,-0.0828 0.1739,-0.22105 z m 3.9111,-0.84338 c -0.1154,-0.52631 -0.4329,-0.77794 -0.4329,-0.34305 0,0.14062 0.057,0.2893 0.127,0.33036 0.07,0.0411 0.097,0.14829 0.061,0.23831 -0.036,0.0901 0.01,0.32978 0.098,0.53282 l 0.1638,0.36916 0.046,-0.3158 c 0.025,-0.17369 0,-0.53899 -0.063,-0.8118 z m 32.048,-0.15404 c -0.1307,-0.3241 -0.3432,-0.0495 -0.3376,0.43644 v 0.46624 l 0.2039,-0.35782 c 0.1121,-0.19681 0.1699,-0.442 0.1284,-0.54486 z m -36.0666,0.26362 c 0,-0.10015 -0.09,-0.18202 -0.1992,-0.18202 -0.2,0 -0.273,0.26666 -0.1143,0.41763 0.124,0.1179 0.3135,-0.0245 0.3135,-0.23561 z m 40.2389,-0.56098 c 0,-0.31119 -0.245,-0.45059 -0.3471,-0.19747 -0.1046,0.25934 0.043,0.61416 0.2134,0.51382 0.073,-0.0432 0.1337,-0.1856 0.1337,-0.31635 z m -40.3717,-0.44957 c 0,-0.18987 -0.077,-0.30834 -0.1992,-0.30834 -0.1987,0 -0.2853,0.50758 -0.1143,0.67027 0.1506,0.14317 0.3135,-0.0449 0.3135,-0.36193 z m 36.3647,0.0155 c 0.031,-0.24768 -0.01,-0.33515 -0.1328,-0.29633 -0.097,0.0304 -0.1958,0.21322 -0.2196,0.40648 -0.031,0.24768 0.01,0.33515 0.1327,0.29633 0.097,-0.0304 0.1958,-0.21322 0.2197,-0.40648 z m -32.4026,-0.46721 c -0.024,-0.16432 -0.1042,-0.28757 -0.1772,-0.27387 -0.1703,0.0319 -0.2454,0.37322 -0.1397,0.63517 0.12,0.29747 0.3722,0.0104 0.3169,-0.3613 z m 36.5173,-0.6917 c -0.023,-0.33971 -0.101,-0.61764 -0.1741,-0.61764 -0.1512,0 -0.2567,1.00154 -0.1368,1.29877 0.1538,0.38113 0.3527,-0.0547 0.3109,-0.68113 z m -3.9963,-1.28581 c -0.038,-2.0892 -0.284,-2.15743 -0.3239,-0.0898 -0.031,1.58611 0.01,1.89769 0.2233,1.77149 0.076,-0.0445 0.1175,-0.74288 0.1006,-1.68175 z m -36.6159,0.16577 c 0,-1.15712 -0.094,-1.59107 -0.282,-1.30824 -0.1286,0.19296 -0.1569,2.00522 -0.036,2.30486 0.1778,0.4409 0.3181,0.002 0.3181,-0.99662 z m 3.9841,-0.0736 c 0,-0.58287 -0.044,-0.75046 -0.1992,-0.75046 -0.1543,0 -0.1992,0.16609 -0.1992,0.73685 0,0.40527 0.038,0.77321 0.085,0.81764 0.1993,0.18962 0.3134,-0.10312 0.3134,-0.80403 z m 36.6281,-1.45918 c -0.023,-0.33969 -0.101,-0.61764 -0.1741,-0.61764 -0.1512,0 -0.2567,1.00155 -0.1368,1.29876 0.1538,0.38114 0.3527,-0.0546 0.3109,-0.68112 z m -36.5173,-0.6978 c -0.024,-0.16434 -0.1042,-0.28759 -0.1772,-0.27388 -0.1703,0.0319 -0.2454,0.37324 -0.1397,0.63519 0.12,0.29745 0.3722,0.0104 0.3169,-0.36131 z m -3.9865,-0.30272 c -0.023,-0.17585 -0.1017,-0.31972 -0.1748,-0.31972 -0.073,0 -0.1517,0.14387 -0.1748,0.31972 -0.03,0.22786 0.02,0.31972 0.1748,0.31972 0.1546,0 0.2048,-0.0919 0.1748,-0.31972 z m 36.4121,0.067 c 0,-0.14036 -0.088,-0.25264 -0.1992,-0.25264 -0.2022,0 -0.2725,0.26722 -0.1107,0.42106 0.1684,0.16015 0.3099,0.0832 0.3099,-0.16842 z m -32.2708,-0.57589 c 0,-0.10015 -0.09,-0.18202 -0.1992,-0.18202 -0.2,0 -0.273,0.26666 -0.1143,0.41762 0.1239,0.11789 0.3135,-0.0245 0.3135,-0.2356 z m 36.2309,0.039 c -0.023,-0.15631 -0.1022,-0.28421 -0.1753,-0.28421 -0.073,0 -0.1519,0.1279 -0.1752,0.28421 -0.029,0.19557 0.025,0.28422 0.1752,0.28422 0.1498,0 0.2045,-0.0886 0.1753,-0.28422 z m -4.0929,-0.28421 c 0,-0.10421 -0.09,-0.18949 -0.1992,-0.18949 -0.2074,0 -0.2635,0.14941 -0.1107,0.29475 0.1528,0.14535 0.3099,0.092 0.3099,-0.10526 z m -36.1474,-0.28423 c -0.054,-0.26626 -0.2896,-0.24946 -0.3496,0.025 -0.025,0.11445 0.048,0.19615 0.1757,0.19615 0.1368,0 0.2019,-0.0827 0.1739,-0.22107 z m 40.0783,-0.36 c -0.064,-0.15934 -0.1282,-0.18119 -0.2345,-0.0802 -0.08,0.0764 -0.1063,0.23754 -0.058,0.35803 0.064,0.15935 0.1283,0.18119 0.2345,0.0802 0.08,-0.0764 0.1063,-0.23755 0.058,-0.35804 z m -4.1301,-0.17685 c -0.064,-0.0988 -0.1407,-0.10622 -0.2292,-0.022 -0.073,0.0695 -0.089,0.19306 -0.036,0.27465 0.064,0.0988 0.1406,0.10622 0.2292,0.022 0.073,-0.0695 0.089,-0.19306 0.036,-0.27464 z m -35.8136,-0.23225 c -0.02,-0.11542 0.011,-0.28093 0.068,-0.36776 0.119,-0.18043 -0.01,-0.44635 -0.1692,-0.35207 -0.1418,0.0834 -0.2923,0.821 -0.1974,0.96711 0.1146,0.17638 0.3397,-0.0104 0.2987,-0.24728 z m 4.2141,-0.59392 c 0.062,-0.50397 0.046,-0.58143 -0.077,-0.39613 -0.2204,0.33079 -0.4006,0.98513 -0.3097,1.12496 0.1429,0.2199 0.3096,-0.0941 0.3869,-0.72883 z m 35.5459,0.29774 c -0.2029,-0.19296 -0.3526,-0.0505 -0.24,0.22831 0.066,0.16467 0.124,0.18098 0.2421,0.0687 0.1182,-0.11238 0.1177,-0.18299 0,-0.29692 z m -4.319,-0.70587 c -0.1776,-0.37075 -0.2874,-0.15625 -0.1625,0.31732 0.065,0.24678 0.1179,0.29013 0.1998,0.16412 0.063,-0.0976 0.047,-0.30461 -0.037,-0.48144 z m 4.2184,0.2155 c -0.077,-0.1182 -0.1628,-0.42314 -0.2827,-1.0023 -0.1232,-0.59476 -0.1762,-0.68255 -0.3261,-0.53996 -0.099,0.0942 -0.095,0.21625 0.016,0.41244 0.086,0.15321 0.1829,0.47983 0.215,0.72585 0.07,0.53371 0.1585,0.69481 0.3282,0.59503 0.069,-0.0406 0.092,-0.12665 0.05,-0.19106 z m -4.5391,-1.00731 c -0.039,-0.14172 -0.1005,-0.22943 -0.1368,-0.19493 -0.072,0.0685 0.055,0.45258 0.1495,0.45258 0.032,0 0.026,-0.11595 -0.013,-0.25765 z m -34.6426,-0.264 c -0.1048,-0.16125 -0.3214,-0.007 -0.3214,0.22877 0,0.16058 0.037,0.16831 0.1978,0.0414 0.1087,-0.0859 0.1643,-0.20743 0.1236,-0.27017 z m 4.3225,-0.22883 c 0,-0.15743 -0.043,-0.14774 -0.1992,0.0482 -0.1072,0.13487 -0.1931,0.33383 -0.1908,0.44213 0,0.15743 0.043,0.14774 0.1992,-0.0483 0.1072,-0.13486 0.1931,-0.33381 0.1908,-0.44211 z m 0.4026,-0.75501 c 0,-0.0639 0.041,-0.22012 0.091,-0.34738 0.08,-0.20369 0.065,-0.21064 -0.1328,-0.058 -0.245,0.18955 -0.3031,0.52139 -0.091,0.52139 0.073,0 0.1328,-0.0522 0.1328,-0.11599 z m 33.7296,-0.10507 c -10e-4,-0.0521 -0.058,-0.17836 -0.1256,-0.28056 -0.153,-0.23013 -0.3325,-0.0862 -0.225,0.18038 0.08,0.19686 0.3543,0.27543 0.3506,0.10026 z m -33.3312,-0.80436 c 0,-0.0695 -0.06,-0.0912 -0.1328,-0.0482 -0.073,0.0429 -0.1328,0.13492 -0.1328,0.20439 0,0.0695 0.06,0.0912 0.1328,0.0482 0.073,-0.0429 0.1328,-0.13491 0.1328,-0.20438 z m 32.8,-0.4588 c -0.001,-0.0521 -0.058,-0.17834 -0.1256,-0.28055 -0.153,-0.23012 -0.3325,-0.0862 -0.225,0.18037 0.079,0.19688 0.3543,0.27544 0.3506,0.10026 z m -0.662,-1.29475 c -0.1224,-0.21757 -0.3984,-0.35598 -0.3984,-0.19981 0,0.20387 0.1928,0.45245 0.3509,0.45245 0.1485,0 0.1588,-0.0548 0.048,-0.25264 z m 33.2004,30.5663 c -9.9572,-0.6108 -18.5012,-7.71112 -20.2085,-16.79373 -0.3551,-1.88906 -0.3893,-5.53694 -0.069,-7.33181 0.7753,-4.34212 2.7128,-7.84287 6.1181,-11.05465 2.2599,-2.13145 4.5097,-3.60885 7.0073,-4.60152 2.7987,-1.11229 5.1035,-1.52169 8.5668,-1.52169 3.2509,0 5.6418,0.33311 8.1811,1.13984 2.8375,0.90145 6.2309,2.85696 6.8118,3.92538 0.2811,0.51702 0.2453,1.66748 -0.07,2.25566 -0.4245,0.79143 -0.8738,1.01617 -2.0315,1.01617 h -0.9915 l -1.312,-0.83495 c -1.6808,-1.06956 -2.7982,-1.60162 -4.4781,-2.13227 -6.0117,-1.89903 -11.4474,-1.11956 -16.2632,2.33206 -1.3659,0.97901 -3.4042,3.01056 -4.2671,4.25307 -3.7833,5.44719 -3.696,12.473 0.22,17.71026 2.7794,3.7171 6.7859,6.18058 11.4071,7.01388 4.7998,0.86549 9.4427,-0.22605 13.9097,-3.27013 0.5883,-0.40093 0.7267,-0.43977 1.567,-0.43977 1.1468,0 1.5981,0.20927 2.1113,0.9791 0.307,0.46038 0.3909,0.7311 0.3909,1.26125 0,1.10859 -0.3155,1.52396 -1.9444,2.56001 -4.3687,2.77866 -8.9518,3.88374 -14.6558,3.53384 z m 16.2925,-6.08413 c -0.042,-0.10077 -0.074,-0.0709 -0.08,0.0763 0,0.13317 0.026,0.20778 0.07,0.16579 0.044,-0.042 0.049,-0.15092 0.011,-0.2421 z m -35.4037,-8.32418 c -0.085,-0.20199 -0.131,-0.23381 -0.1366,-0.0942 -0.011,0.28001 0.1607,0.69612 0.2189,0.52997 0.025,-0.0719 -0.012,-0.26799 -0.082,-0.43572 z m 3.9149,-1.0591 c -0.1775,-0.491 -0.3415,-0.70443 -0.3415,-0.44434 0,0.28728 0.3082,0.99884 0.4074,0.94053 0.052,-0.0303 0.022,-0.25352 -0.066,-0.49619 z m -4.2285,-0.0695 c -0.018,-0.20981 -0.077,-0.38035 -0.1312,-0.37897 -0.1222,0.003 -0.1244,0.0503 -0.02,0.44517 0.1136,0.4304 0.1909,0.3966 0.1515,-0.0662 z m -0.097,-0.81113 c 0,-0.10016 -0.054,-0.21385 -0.1203,-0.25277 -0.066,-0.0388 -0.089,-0.18437 -0.051,-0.32325 0.05,-0.18075 0,-0.25253 -0.1608,-0.25253 -0.1739,0 -0.2106,0.0696 -0.1501,0.28425 0.044,0.15631 0.081,0.38368 0.082,0.50526 10e-4,0.12158 0.091,0.22106 0.201,0.22106 0.1096,0 0.1992,-0.0819 0.1992,-0.18202 z m 3.8513,-1.15178 c 0,-0.10016 -0.09,-0.18203 -0.1992,-0.18203 -0.2001,0 -0.273,0.26665 -0.1143,0.41763 0.1239,0.11787 0.3135,-0.0245 0.3135,-0.2356 z m -4.1169,-0.30835 c 0,-0.14035 -0.088,-0.25264 -0.1992,-0.25264 -0.2022,0 -0.2724,0.26722 -0.1107,0.42107 0.1684,0.16013 0.3099,0.0832 0.3099,-0.16843 z m 3.9588,-0.47369 c -0.054,-0.26627 -0.2896,-0.24947 -0.3497,0.025 -0.025,0.11445 0.048,0.19615 0.1758,0.19615 0.1367,0 0.2019,-0.0828 0.1739,-0.22105 z m -4.0916,-0.92327 c 0,-0.3583 -0.056,-0.49783 -0.1992,-0.49783 -0.1424,0 -0.1992,0.13802 -0.1992,0.48424 0,0.26632 0.038,0.52057 0.085,0.56499 0.177,0.16838 0.3135,-0.0716 0.3135,-0.5514 z m 3.9366,-1.44521 c 0,-1.10003 -0.046,-1.57899 -0.1517,-1.57899 -0.1058,0 -0.1518,0.47896 -0.1518,1.57899 0,1.10002 0.046,1.57899 0.1518,1.57899 0.1057,0 0.1517,-0.47897 0.1517,-1.57899 z m -3.9622,-1.48426 c -0.023,-0.29527 -0.1006,-0.53685 -0.1736,-0.53685 -0.073,0 -0.1512,0.24158 -0.1736,0.53685 -0.033,0.42602 0,0.53687 0.1736,0.53687 0.1702,0 0.206,-0.11085 0.1736,-0.53687 z m 4.0761,-0.89475 c 0,-0.32926 -0.2604,-0.30859 -0.31,0.0247 -0.03,0.20451 0.011,0.28063 0.1328,0.24212 0.098,-0.0309 0.1772,-0.15092 0.1772,-0.26671 z m -3.943,-0.43159 c -0.054,-0.26626 -0.2896,-0.24947 -0.3496,0.025 -0.025,0.11444 0.048,0.19615 0.1757,0.19615 0.1368,0 0.2019,-0.0828 0.1739,-0.22106 z m 4.1413,-0.63905 -10e-4,-0.46624 -0.2032,0.37066 c -0.2095,0.38217 -0.1654,0.77948 0.071,0.64045 0.073,-0.0432 0.1334,-0.28843 0.1329,-0.54487 z m -3.9832,-0.22413 c 0,-0.22308 -0.2859,-0.18422 -0.368,0.05 -0.029,0.0825 0.042,0.14999 0.1577,0.14999 0.1157,0 0.2103,-0.0901 0.2103,-0.2 z m 0.1328,-0.62852 c 0,-0.20843 -0.2099,-0.24364 -0.332,-0.0557 -0.1082,0.16669 0.05,0.40322 0.2084,0.31041 0.068,-0.0399 0.1236,-0.1546 0.1236,-0.2547 z m 4.3825,-0.94739 c 0,-0.0654 -0.06,-0.11887 -0.1328,-0.11887 -0.073,0 -0.1328,0.0886 -0.1328,0.19694 0,0.10831 0.06,0.1618 0.1328,0.11886 0.073,-0.0429 0.1328,-0.13155 0.1328,-0.19693 z m 0.3984,-1.08117 c 0,-0.10421 -0.06,-0.15435 -0.1328,-0.11141 -0.073,0.0429 -0.1328,0.16334 -0.1328,0.26755 0,0.10421 0.06,0.15435 0.1328,0.11141 0.073,-0.0429 0.1328,-0.16334 0.1328,-0.26755 z m -3.9841,-0.87677 c 0,-0.10833 -0.06,-0.16181 -0.1328,-0.11887 -0.073,0.0429 -0.1328,0.13156 -0.1328,0.19694 0,0.0654 0.06,0.11886 0.1328,0.11886 0.073,0 0.1328,-0.0886 0.1328,-0.19693 z m 0.2656,-0.6316 c 0,-0.10832 -0.06,-0.16181 -0.1328,-0.11887 -0.073,0.0429 -0.1328,0.13157 -0.1328,0.19695 0,0.0654 0.06,0.11886 0.1328,0.11886 0.073,0 0.1328,-0.0886 0.1328,-0.19694 z m 1.1288,-2.0768 c 0.045,-0.0695 0.019,-0.12632 -0.059,-0.12632 -0.077,0 -0.1406,0.057 -0.1406,0.12632 0,0.0695 0.026,0.12632 0.059,0.12632 0.032,0 0.095,-0.0569 0.1407,-0.12632 z m 3.4034,-4.26327 c 0.1652,-0.20034 0.1605,-0.20482 -0.05,-0.0477 -0.1278,0.0954 -0.2324,0.19483 -0.2324,0.22106 0,0.10397 0.1091,0.037 0.2826,-0.17337 z m 30.2619,-0.37263 c 0,-0.25402 -0.038,-0.30456 -0.1505,-0.19796 -0.083,0.0787 -0.1145,0.23217 -0.071,0.34105 0.1216,0.30134 0.221,0.23696 0.221,-0.14309 z m 15.405,35.21971 c -0.6778,-0.13782 -1.0517,-0.39621 -1.3391,-0.92543 -0.2477,-0.45601 -0.2546,-1.00117 -0.2546,-20.19606 v -19.72739 l 0.5644,-0.53604 c 0.4614,-0.43815 0.6858,-0.55184 1.2291,-0.62256 1.2073,-0.15718 2.2367,0.21177 2.7276,0.97765 0.2515,0.39225 0.2588,0.72709 0.2593,11.83396 v 11.4303 l 12.5166,-11.88847 c 10.4894,-9.96311 12.5891,-11.9012 12.9647,-11.96715 2.1368,-0.37514 3.6385,0.90199 3.277,2.78707 -0.082,0.4286 -1.0061,1.35209 -8.3829,8.37892 -4.5597,4.34348 -8.2905,7.93628 -8.2905,7.984 0,0.0478 3.6526,4.30996 8.1168,9.47162 4.4642,5.16168 8.2062,9.5836 8.3156,9.82655 0.4205,0.93424 -0.015,2.45021 -0.8532,2.9729 -0.4381,0.27302 -1.9202,0.32075 -2.517,0.0811 -0.3609,-0.14493 -1.8317,-1.74462 -4.6956,-5.10708 -0.1827,-0.21439 -0.9894,-1.13709 -1.7929,-2.05048 -0.8034,-0.91337 -1.6102,-1.83735 -1.7928,-2.05329 -0.1826,-0.21594 -2.1547,-2.49499 -4.3825,-5.06458 l -4.0504,-4.67196 -4.2094,3.99199 -4.2094,3.99201 -0.04,4.87072 c -0.039,4.75237 -0.047,4.88147 -0.3299,5.31285 -0.1593,0.24317 -0.4612,0.53815 -0.6708,0.65549 -0.4557,0.25506 -1.5157,0.37447 -2.1604,0.24339 z m 47.0117,-0.001 c -0.6942,-0.13593 -1.148,-0.4752 -1.3831,-1.03414 -0.1889,-0.44907 -0.2102,-2.46466 -0.2076,-19.66666 0,-18.37982 0.013,-19.18746 0.2488,-19.68121 0.3314,-0.694 0.8932,-0.93794 2.1588,-0.93732 1.0859,5e-4 1.6415,0.22673 2.0644,0.84059 0.2283,0.33146 0.2396,1.26168 0.2396,19.74337 v 19.39548 l -0.3116,0.47678 c -0.1715,0.2622 -0.4703,0.55396 -0.6641,0.64834 -0.4544,0.22132 -1.551,0.33109 -2.1452,0.21477 z m -0.3542,-47.77436 c -0.5795,-0.15957 -1.0726,-0.75986 -1.1791,-1.43518 -0.049,-0.30915 -0.067,-1.24265 -0.041,-2.07445 0.04,-1.28652 0.088,-1.56562 0.3224,-1.86898 0.4769,-0.61829 1.0541,-0.82076 2.1818,-0.76525 1.1237,0.0552 1.4815,0.21549 1.9,0.85076 0.2652,0.40262 0.2912,0.60665 0.2912,2.28357 0,1.83467 -10e-4,1.84323 -0.3827,2.31873 -0.2105,0.26249 -0.5821,0.55649 -0.8257,0.65334 -0.4935,0.1961 -1.6227,0.21477 -2.2666,0.0374 z"
       id="path17"
       inkscape:connector-curvature="0" />
  </g>
</svg>
