<svg xmlns="http://www.w3.org/2000/svg" xmlns:svg="http://www.w3.org/2000/svg" width="512" height="512" version="1.1" viewBox="0 0 512 512" xml:space="preserve"><path d="m 509.4552,2.5024725 c -3.39307,-3.33662999 -8.87751,-3.33662999 -12.27058,0 L 465.01551,34.136476 H 262.96729 L 8.9643009,285.97101 C 3.1848002,291.65439 0,299.22366 0,307.26231 c 0,8.03862 3.1848002,15.6079 8.9643009,21.29128 L 186.5668,503.20189 c 5.96174,5.86255 13.78056,8.79811 21.61672,8.79811 7.87089,0 15.74177,-2.96115 21.77293,-8.88345 L 477.2861,253.33006 V 46.202955 l 32.1691,-31.634003 c 3.39307,-3.336631 3.39307,-8.7298496 0,-12.0664795 z M 459.93027,246.40078 217.59908,491.13538 c -5.17204,5.08604 -13.58963,5.08604 -18.76169,0 L 21.234893,316.48711 c -5.172046,-5.08602 -5.172046,-13.3636 0.02603,-18.47522 L 270.2047,51.203642 h 177.45496 l -41.94043,41.242797 c -6.86424,-4.471603 -15.06488,-7.108488 -23.89033,-7.108488 -23.92506,0 -43.38967,19.140839 -43.38967,42.667929 0,23.52707 19.46461,42.66791 43.38967,42.66791 23.92504,0 43.38965,-19.14084 43.38965,-42.66791 0,-8.67866 -2.6815,-16.74289 -7.22874,-23.49296 l 41.94046,-41.242798 z m -52.06758,-118.3949 c 0,14.11453 -11.68051,25.60074 -26.03379,25.60074 -14.3533,0 -26.0338,-11.48621 -26.0338,-25.60074 0,-14.11455 11.6805,-25.60076 26.0338,-25.60076 4.00919,0 7.75806,0.97283 11.15113,2.56862 l -17.28645,16.99887 c -3.39307,3.33663 -3.39307,8.72988 0,12.06651 1.69221,1.66404 3.91377,2.50033 6.13532,2.50033 2.22154,0 4.44309,-0.83629 6.1353,-2.50033 l 17.28641,-16.99891 c 1.63147,3.33663 2.61208,7.02314 2.61208,10.96567 z"/></svg>