<?xml version="1.0" encoding="UTF-8" standalone="no"?>
<svg
   xmlns:dc="http://purl.org/dc/elements/1.1/"
   xmlns:cc="http://creativecommons.org/ns#"
   xmlns:rdf="http://www.w3.org/1999/02/22-rdf-syntax-ns#"
   xmlns:svg="http://www.w3.org/2000/svg"
   xmlns="http://www.w3.org/2000/svg"
   height="512"
   width="512"
   viewBox="0 0 384 384"
   version="1.1" >
    <path d="M 345.93751,24 H 36.5625 C 28.799973,24 22.5,30.299956 22.5,38.0625 v 309.375 c 0,7.76255 6.299973,14.0625 14.0625,14.0625 H 345.93751 C 353.70003,361.5 360,355.20005 360,347.4375 V 38.0625 C 360,30.299956 353.70003,24 345.93751,24 Z m -91.40628,105.46876 v 49.21874 h -126.5625 v -49.21874 z m 77.34377,0 V 178.6875 H 282.65626 V 129.46876 Z M 99.843733,178.6875 H 50.625001 v -49.21874 h 49.218732 z m -49.218732,28.125 H 177.1875 v 49.21875 H 50.625001 Z M 254.53123,284.15626 V 333.375 H 127.96873 V 284.15626 Z M 205.3125,256.03125 V 206.8125 H 331.875 v 49.21875 z M 331.875,101.34375 H 205.3125 V 52.125 H 331.875 Z M 177.1875,52.125 v 49.21875 H 50.625001 V 52.125 Z M 50.625001,284.15626 H 99.843733 V 333.375 H 50.625001 Z M 282.65626,333.375 V 284.15626 H 331.875 V 333.375 Z" />
</svg>
