<?xml version="1.0" encoding="UTF-8" standalone="no"?>
<svg
   xmlns:dc="http://purl.org/dc/elements/1.1/"
   xmlns:cc="http://creativecommons.org/ns#"
   xmlns:rdf="http://www.w3.org/1999/02/22-rdf-syntax-ns#"
   xmlns:svg="http://www.w3.org/2000/svg"
   xmlns="http://www.w3.org/2000/svg"
   version="1.1"
   viewBox="0 0 512 512"
   xml:space="preserve"
   width="512"
   height="512" >
	<path d="M 256,0 C 156.748,0 76,80.748 76,180 c 0,33.534 9.289,66.26 26.869,94.652 l 142.885,230.257 c 2.737,4.411 7.559,7.091 12.745,7.091 0.04,0 0.079,0 0.119,0 5.231,-0.041 10.063,-2.804 12.75,-7.292 L 410.611,272.22 C 427.221,244.428 436,212.539 436,180 436,80.748 355.252,0 256,0 Z M 384.866,256.818 258.272,468.186 128.367,258.846 C 113.734,235.214 105.8,207.95 105.8,180 105.8,97.29 173.29,29.8 256,29.8 c 82.71,0 150.1,67.49 150.1,150.2 0,27.121 -7.411,53.688 -21.234,76.818 z" />
	<path d="m 256,90 c -49.626,0 -90,40.374 -90,90 0,49.309 39.717,90 90,90 50.903,0 90,-41.233 90,-90 0,-49.626 -40.374,-90 -90,-90 z m 0,150.2 c -33.257,0 -60.2,-27.033 -60.2,-60.2 0,-33.084 27.116,-60.2 60.2,-60.2 33.084,0 60.1,27.116 60.1,60.2 0,32.683 -26.316,60.2 -60.1,60.2 z" />
</svg>