<svg xmlns="http://www.w3.org/2000/svg" xmlns:svg="http://www.w3.org/2000/svg" version="1.1" viewBox="0 0 512 512"><circle cx="256" cy="256" r="256" style="fill:#999"/><circle cx="256" cy="256" r="230" style="fill:#f9f9f9"/><path style="fill:#000" d="m 129.15935,201.85776 c -0.37333,-0.15542 -0.83857,-0.68212 -1.01388,-1.14782 C 128.04481,200.44233 128,193.85992 128,179.30695 v -21.01654 l 0.34804,-0.45928 c 0.19143,-0.25259 0.52595,-0.55185 0.7434,-0.66502 0.88076,-0.45844 2.12144,-0.1167 2.69084,0.74116 l 0.30959,0.46646 v 12.7469 c 0,7.0108 0.0462,12.7469 0.10258,12.7469 0.0564,0 5.8413,-5.7823 12.8553,-12.84957 7.01401,-7.06727 12.99213,-13.02873 13.28468,-13.24768 0.73912,-0.55315 1.60031,-0.55396 2.35705,-0.002 0.84861,0.61875 1.1647,1.47159 0.85487,2.3065 -0.0794,0.21375 -3.95021,4.22181 -8.66113,8.96803 -4.68475,4.71988 -8.51772,8.67493 -8.51772,8.78901 0,0.1141 3.78241,4.83937 8.40538,10.5006 4.62295,5.66124 8.48976,10.49194 8.59293,10.73492 0.26029,0.61299 0.2348,1.08936 -0.0949,1.77486 -0.50356,1.04694 -1.69923,1.45222 -2.67449,0.90652 -0.25418,-0.14221 -3.83187,-4.38485 -8.76925,-10.39908 -4.58693,-5.58736 -8.42835,-10.22029 -8.53648,-10.2954 -0.1538,-0.10681 -1.17649,0.84936 -4.69773,4.39223 l -4.50111,4.52879 v 5.16156 c 0,5.10493 -0.003,5.16808 -0.31028,5.75216 -0.18301,0.34832 -0.50387,0.69508 -0.78215,0.84529 -0.48785,0.26334 -1.36333,0.3222 -1.84008,0.12374 z m 47.84445,-0.13989 c -0.91731,-0.56294 -0.86239,0.91375 -0.82325,-22.13651 l 0.0354,-20.8575 0.50048,-0.46162 c 1.1377,-1.04935 3.00186,-0.646 3.38205,0.73181 0.0768,0.27829 0.13997,1.50985 0.14038,2.7368 4.2e-4,1.22696 0.0389,2.23084 0.0853,2.23084 0.0464,0 0.61674,-0.50965 1.26726,-1.13258 2.62332,-2.51196 5.77516,-4.19388 9.11323,-4.86306 1.6779,-0.33637 5.26974,-0.3355 6.8573,8.4e-4 3.76644,0.79989 6.80759,2.50508 9.44769,5.2974 2.83402,2.9974 4.46529,6.50027 4.86839,10.45401 0.0873,0.85504 0.14188,6.2567 0.14188,14.01127 0,13.67253 0.0292,13.12883 -0.74359,13.8465 -0.31912,0.29637 -0.49686,0.34321 -1.30234,0.34321 -0.80687,0 -0.98202,-0.0463 -1.2973,-0.34321 -0.20049,-0.18876 -0.43558,-0.46675 -0.52248,-0.61777 -0.11547,-0.20069 -0.17739,-3.96754 -0.2301,-14.00272 -0.0718,-13.68878 -0.073,-13.73133 -0.37749,-14.82644 -1.09678,-3.94472 -4.00789,-7.38723 -7.73246,-9.14394 -3.74936,-1.76843 -8.81546,-1.57067 -12.38849,0.48359 -3.31881,1.9081 -5.80979,5.07737 -6.80687,8.66035 -0.30488,1.09561 -0.30579,1.13141 -0.37647,14.83257 -0.0667,12.93781 -0.0851,13.75627 -0.31695,14.11228 -0.58261,0.89466 -2.00233,1.20716 -2.92152,0.64306 z m 67.83764,0.12393 c -2.10859,-0.29244 -4.54891,-1.09211 -6.46723,-2.11922 -1.8165,-0.9726 -3.226,-2.04961 -4.93985,-3.77461 -2.82713,-2.84549 -4.5902,-5.81804 -5.6577,-9.53887 -1.01737,-3.54617 -1.1638,-7.8079 -0.39844,-11.59586 1.12915,-5.58829 4.74807,-10.87167 9.63764,-14.07026 5.24992,-3.43434 12.3353,-4.04913 18.31843,-1.58946 2.48406,1.0212 4.58056,2.47304 6.74285,4.66947 4.66015,4.73377 6.9239,11.01068 6.41086,17.77592 -0.42351,5.58446 -2.43308,10.11642 -6.25959,14.11649 -2.87243,3.0027 -6.43715,5.02369 -10.35383,5.87 -1.52481,0.32947 -5.46944,0.47327 -7.03314,0.2564 z m 6.74326,-4.42233 c 2.88399,-0.76152 5.32931,-2.19274 7.51475,-4.39828 3.45594,-3.48777 5.19502,-7.50185 5.3932,-12.44841 0.20863,-5.20765 -1.54553,-9.90489 -5.06827,-13.57176 -1.5137,-1.57565 -2.90033,-2.64308 -4.51057,-3.47225 -2.26994,-1.16889 -4.00071,-1.61471 -6.68086,-1.72086 -4.76428,-0.1887 -8.64341,1.42461 -12.13608,5.04736 -3.45132,3.57985 -5.14975,7.85128 -5.15422,12.96245 -0.005,5.10768 1.65072,9.30972 5.07781,12.89102 2.65952,2.77918 5.3634,4.32009 8.68738,4.95076 1.70438,0.32339 5.20603,0.20117 6.87686,-0.24003 z m 47.42499,4.36818 c -5.10817,-0.7366 -9.30933,-2.87883 -13.06329,-6.6612 -1.91745,-1.93195 -2.95092,-3.31448 -4.02501,-5.38456 -3.24041,-6.24517 -3.09892,-14.4274 0.3543,-20.48897 2.56998,-4.5112 7.06258,-8.42562 11.74551,-10.23393 5.40718,-2.08797 12.55852,-1.73658 18.06962,0.88789 1.564,0.74481 3.72376,2.14329 4.2609,2.75907 1.22692,1.40644 0.12906,3.69164 -1.65765,3.45045 -0.35734,-0.0482 -0.984,-0.37291 -1.85644,-0.96172 -2.32983,-1.57247 -4.24376,-2.378 -7.11382,-2.99403 -1.90856,-0.40963 -5.88658,-0.45566 -7.57827,-0.0878 -3.67727,0.79989 -6.31166,2.28231 -9.20931,5.1823 -2.83179,2.83404 -4.21209,5.36277 -5.05872,9.26769 -0.27937,1.28858 -0.23722,5.4917 0.0692,6.90476 0.72915,3.36175 2.27805,6.26943 4.63709,8.70502 3.01696,3.11482 6.37963,4.88375 10.52475,5.5365 2.1298,0.33539 5.32496,0.21994 7.24043,-0.2616 2.43283,-0.61162 4.00553,-1.32568 6.25658,-2.8407 1.64359,-1.10618 2.18827,-1.26555 3.00007,-0.87782 1.10053,0.52564 1.60641,2.14051 0.95188,3.03853 -0.81272,1.11504 -4.40995,3.20517 -7.02613,4.08249 -2.43105,0.81521 -3.84782,1.05166 -6.67193,1.11352 -1.70912,0.0375 -2.95135,-0.007 -3.8498,-0.13601 z m 33.62088,-0.003 c -0.24234,-0.10604 -0.56434,-0.39706 -0.71558,-0.64672 -0.27254,-0.44996 -0.27498,-0.64013 -0.27548,-21.64279 0,-19.49595 0.0176,-21.21966 0.22591,-21.57461 0.29975,-0.51073 1.12008,-0.96077 1.75133,-0.96077 0.63123,0 1.45159,0.45004 1.75135,0.96078 0.20652,0.35193 0.22639,1.49975 0.22639,13.08937 0,9.20691 0.0419,12.72967 0.15232,12.79834 0.0904,0.0562 5.45149,-5.23292 13.19631,-13.01943 7.17419,-7.21281 13.17804,-13.18239 13.3419,-13.26571 0.41593,-0.21151 1.21242,-0.18885 1.66635,0.0475 0.21018,0.10939 0.5754,0.42042 0.81159,0.69117 0.35254,0.40413 0.42943,0.60887 0.42943,1.14337 0,0.37247 -0.0953,0.79633 -0.22287,0.99051 -0.12258,0.18668 -4.02753,4.17722 -8.6776,8.86786 -6.44028,6.49645 -8.42641,8.57664 -8.33595,8.7308 0.0652,0.1113 3.86281,4.7872 8.43889,10.39087 4.57609,5.60366 8.40639,10.35349 8.51177,10.55516 0.40689,0.77866 0.15209,1.92998 -0.57935,2.61764 -0.42217,0.39691 -1.40634,0.54015 -2.00278,0.2915 -0.29539,-0.12316 -2.86632,-3.15147 -8.80026,-10.36595 -4.61061,-5.60557 -8.47951,-10.27261 -8.5975,-10.3712 -0.18634,-0.15563 -0.81474,0.42559 -4.77342,4.41513 l -4.55883,4.59435 v 5.21248 c 0,4.95912 -0.0136,5.23426 -0.27155,5.65991 -0.54749,0.90379 -1.67574,1.23511 -2.69188,0.79051 z m 48.28414,0.007 c -0.24234,-0.11023 -0.56435,-0.40467 -0.71559,-0.65434 -0.27249,-0.44987 -0.27495,-0.64049 -0.27495,-21.32073 0,-20.17418 0.009,-20.88088 0.25617,-21.28968 0.72409,-1.1951 2.78011,-1.14818 3.48907,0.0796 0.27562,0.47738 0.27743,0.6143 0.27743,21.14139 0,22.73981 0.0641,20.99976 -0.80437,21.81641 -0.43974,0.41346 -1.56584,0.52835 -2.22776,0.22732 z m 0.0313,-51.82755 c -0.15004,-0.0624 -0.42624,-0.27955 -0.61379,-0.48242 -0.32154,-0.34781 -0.34357,-0.4708 -0.38619,-2.15611 -0.0482,-1.90809 0.0405,-2.3387 0.58876,-2.85714 0.69269,-0.65495 2.08899,-0.61708 2.80792,0.0761 0.50321,0.48523 0.72837,1.55158 0.63763,3.01944 -0.079,1.27571 -0.3346,1.87769 -0.96091,2.26204 -0.45783,0.28097 -1.5547,0.35399 -2.07342,0.13804 z"/><path style="fill:#000" d="m 215.66055,354.60677 h 80.51505 c 9.68068,0 9.56615,16.46248 0,16.46248 0.22776,0 -80.85669,0.44097 -80.85669,0.29398 -9.11448,0 -8.89407,-16.75646 0.34164,-16.75646 z"/></svg>