<svg xmlns="http://www.w3.org/2000/svg" xmlns:svg="http://www.w3.org/2000/svg" width="512" height="116" viewBox="0 0 512 116"><path style="fill:#fff" d="M 2.3187329,115.71386 C 1.5720638,115.40302 0.64158124,114.34959 0.29095926,113.41819 0.08948571,112.88297 0,99.71796 0,70.61163 V 28.577991 l 0.69607694,-0.918548 c 0.38284916,-0.5052 1.05191226,-1.103751 1.48680886,-1.33011 1.7615407,-0.916856 4.2428591,-0.233377 5.3816425,1.482369 l 0.6192233,0.93295 v 25.494143 c 0,14.021785 0.092315,25.494145 0.2051393,25.494145 0.1128253,0 11.6826011,-11.56479 25.7106121,-25.699505 14.028005,-14.134733 25.984222,-26.057814 26.569366,-26.495737 1.47821,-1.106298 3.200602,-1.107917 4.714066,-0.0044 1.69724,1.237478 2.329439,2.943186 1.709766,4.613037 -0.15864,0.427487 -7.900439,8.443722 -17.322269,17.936311 -9.369494,9.439874 -17.035434,17.350094 -17.035434,17.578284 0,0.22818 7.564838,9.67884 16.810747,21.00147 9.245909,11.3226 16.979551,20.98416 17.185872,21.47008 0.520544,1.22603 0.469599,2.17877 -0.189813,3.54982 -1.00709,2.09389 -3.398436,2.90446 -5.348939,1.81307 -0.508379,-0.28445 -7.66373,-8.76982 -17.538471,-20.79846 C 34.480531,83.522 26.797691,74.256 26.581413,74.10581 c -0.307619,-0.21365 -2.352999,1.69874 -9.395449,8.78457 l -9.0022124,9.0577 v 10.32329 c 0,10.20996 -0.00705,10.33625 -0.6205826,11.50447 -0.3659938,0.69659 -1.007735,1.39015 -1.5643,1.69058 -0.9756763,0.52665 -2.7266778,0.64441 -3.6801361,0.24746 z m 95.6888181,-0.27979 c -1.834566,-1.12586 -1.724734,1.82754 -1.646496,-44.27361 l 0.07071,-41.715555 1.000976,-0.923272 c 2.275353,-2.098736 6.003689,-1.291983 6.764089,1.463653 0.15358,0.556587 0.27994,3.019751 0.28076,5.473695 8.2e-4,2.453944 0.0775,4.461717 0.1705,4.461717 0.0929,0 1.23348,-1.01933 2.53455,-2.26518 5.24664,-5.024013 11.55033,-8.387869 18.22647,-9.726249 3.35576,-0.672738 10.53947,-0.671015 13.71455,0.0033 7.5329,1.599788 13.61519,5.010219 18.89539,10.594928 5.66802,5.99487 8.93056,13.000724 9.7368,20.908323 0.17433,1.7101 0.28373,12.51354 0.28373,28.02292 0,27.3454 0.0583,26.25799 -1.48717,27.69337 -0.63825,0.59275 -0.99369,0.68642 -2.60472,0.68642 -1.61368,0 -1.96402,-0.0927 -2.59458,-0.68642 -0.40094,-0.37753 -0.87117,-0.93353 -1.04495,-1.23554 -0.23095,-0.40141 -0.35475,-7.93522 -0.46022,-28.00587 -0.14384,-27.37788 -0.14601,-27.463 -0.75496,-29.65324 -2.19357,-7.889549 -8.01578,-14.774659 -15.46488,-18.288154 -7.49871,-3.536889 -17.63091,-3.141357 -24.77699,0.967226 -6.6376,3.816231 -11.61958,10.154872 -13.61372,17.320928 -0.60978,2.19124 -0.6116,2.26287 -0.75297,29.66556 -0.13347,25.87593 -0.17024,27.51288 -0.6339,28.22489 -1.16522,1.78936 -4.004677,2.41437 -5.843036,1.28617 z m 135.675259,0.24788 c -4.21716,-0.5849 -9.09781,-2.18424 -12.93444,-4.2385 -3.63298,-1.94521 -6.45197,-4.09927 -9.87972,-7.54932 -5.65427,-5.69106 -9.1804,-11.63624 -11.31537,-19.07801 -2.03476,-7.09244 -2.32763,-15.61601 -0.79687,-23.19202 2.25828,-11.176736 9.49612,-21.743627 19.27527,-28.140924 10.49982,-6.868747 24.67057,-8.098327 36.63684,-3.178938 4.96812,2.042408 9.16113,4.946157 13.48565,9.339059 9.32028,9.467661 13.84782,22.021663 12.82171,35.552343 -0.84699,11.16904 -4.86616,20.2331 -12.51916,28.23335 -5.7448,6.00547 -12.87428,10.0475 -20.70762,11.74013 -3.04962,0.65897 -10.9389,0.94659 -14.06629,0.51283 z m 13.48654,-8.84475 c 5.76799,-1.52308 10.65861,-4.38555 15.02947,-8.7967 6.9119,-6.97565 10.39003,-15.0039 10.78639,-24.89717 0.41727,-10.41539 -3.09105,-19.810046 -10.13652,-27.143898 -3.0274,-3.151321 -5.80069,-5.286223 -9.02112,-6.944585 -4.53991,-2.337805 -8.00141,-3.229429 -13.36174,-3.441744 -9.52854,-0.377414 -17.28681,2.849261 -24.27213,10.094831 -6.90265,7.159807 -10.29953,15.702776 -10.30848,25.925276 -0.008,10.21549 3.30145,18.61968 10.15563,25.7824 5.31903,5.55844 10.72681,8.64027 17.37476,9.90164 3.40877,0.64678 10.41206,0.40234 13.75374,-0.48005 z m 94.84989,8.73642 c -10.21633,-1.4732 -18.61863,-5.75771 -26.12656,-13.32253 -3.8349,-3.86395 -5.90184,-6.62909 -8.04999,-10.76927 -6.48085,-12.49054 -6.19786,-28.85517 0.70858,-40.978523 5.13995,-9.022505 14.12513,-16.85145 23.49103,-20.46812 10.81432,-4.175996 25.11699,-3.473192 36.13921,1.775805 3.12801,1.489623 7.44751,4.286651 8.52182,5.518194 2.45382,2.812924 0.2581,7.383409 -3.31531,6.900994 -0.7147,-0.09649 -1.96803,-0.745779 -3.71289,-1.923453 -4.65966,-3.144987 -8.48752,-4.75605 -14.22766,-5.988114 -3.8171,-0.819298 -11.77313,-0.911357 -15.15653,-0.175376 -7.35452,1.599809 -12.6233,4.564703 -18.41861,10.364728 -5.66359,5.66817 -8.42416,10.725675 -10.11743,18.535645 -0.55875,2.5772 -0.47444,10.98354 0.1385,13.80964 1.45829,6.72362 4.55607,12.53907 9.27417,17.41031 6.0339,6.22978 12.75928,9.76768 21.04951,11.07317 4.25957,0.67077 10.64988,0.43987 14.48084,-0.52322 4.86568,-1.22322 8.01104,-2.65136 12.51317,-5.68146 3.28716,-2.21238 4.37651,-2.53113 6.00012,-1.75566 2.20105,1.05127 3.21284,4.28105 1.90376,6.07709 -1.62546,2.23014 -8.8199,6.41049 -14.05229,8.16512 -4.86206,1.63045 -7.69561,2.10335 -13.34384,2.22706 -3.41825,0.0749 -5.90267,-0.0129 -7.6996,-0.27203 z m 67.24174,-0.004 c -0.48466,-0.21206 -1.12866,-0.79411 -1.43113,-1.29344 -0.5451,-0.8999 -0.54996,-1.28025 -0.55097,-43.28614 0,-38.992469 0.0351,-42.439915 0.4518,-43.149817 0.59951,-1.021487 2.24019,-1.921564 3.50267,-1.921564 1.26248,0 2.90316,0.900077 3.50267,1.921573 0.41309,0.703885 0.45282,2.999545 0.45282,26.179085 0,18.414083 0.0838,25.459713 0.30465,25.597043 0.18088,0.11253 10.90295,-10.46598 26.39258,-26.039224 14.34838,-14.425815 26.35607,-26.36511 26.68381,-26.531766 0.83184,-0.423032 2.42482,-0.377714 3.33266,0.09481 0.4204,0.218803 1.15082,0.840879 1.62322,1.382389 0.70506,0.808253 0.85886,1.217754 0.85886,2.286754 0,0.744984 -0.19075,1.592676 -0.44576,1.981057 -0.24517,0.373379 -8.05501,8.354553 -17.35515,17.73594 -12.88058,12.99308 -16.8528,17.15353 -16.67191,17.46184 0.13061,0.22261 7.72559,9.57453 16.87776,20.78202 9.15215,11.20748 16.81274,20.70727 17.0235,21.11062 0.81382,1.55733 0.3042,3.86001 -1.15868,5.23536 -0.84435,0.79381 -2.81271,1.0803 -4.00555,0.58299 -0.59079,-0.24631 -5.73261,-6.30303 -17.60051,-20.73215 -9.22122,-11.21132 -16.95898,-20.54553 -17.19505,-20.7427 -0.37261,-0.31128 -1.62942,0.85119 -9.54678,8.83036 l -9.11765,9.18883 v 10.42513 c 0,9.91835 -0.0274,10.46862 -0.54311,11.31998 -1.09498,1.80761 -3.35146,2.47028 -5.38374,1.58103 z m 96.56825,0.0152 c -0.48467,-0.22044 -1.12868,-0.80933 -1.43115,-1.30867 -0.54501,-0.89974 -0.54992,-1.28102 -0.54992,-42.64209 0,-40.348857 0.0169,-41.762276 0.51234,-42.579882 1.44816,-2.390249 5.56022,-2.296401 6.97811,0.15926 0.55124,0.954759 0.55486,1.228637 0.55486,42.283342 0,45.48026 0.12832,42.00011 -1.60873,43.63343 -0.87944,0.82691 -3.13169,1.05672 -4.45551,0.45461 z m 0.0628,-103.656481 c -0.30007,-0.124926 -0.85248,-0.559109 -1.22756,-0.964857 -0.64309,-0.695636 -0.68714,-0.941619 -0.77238,-4.312289 -0.0966,-3.816253 0.081,-4.677467 1.17753,-5.714358 1.38534,-1.309919 4.17797,-1.234173 5.6158,0.152318 1.00641,0.970469 1.45675,3.103173 1.27525,6.038969 -0.15776,2.551438 -0.66919,3.755401 -1.9218,4.524143 -0.91565,0.561937 -3.10937,0.707984 -4.14684,0.276074 z"/></svg>